<?xml version="1.0" encoding="UTF-8" standalone="no"?>
<!-- Created with Inkscape (http://www.inkscape.org/) -->

<svg
   width="1024"
   height="1024"
   viewBox="0 0 1024 1024"
   version="1.1"
   id="svg5"
   inkscape:version="1.1.1 (c3084ef, 2021-09-22)"
   sodipodi:docname="quinten_club_logo.svg"
   inkscape:export-filename="/Users/quinten/Desktop/quinten_club_logo.png"
   inkscape:export-xdpi="96"
   inkscape:export-ydpi="96"
   xmlns:inkscape="http://www.inkscape.org/namespaces/inkscape"
   xmlns:sodipodi="http://sodipodi.sourceforge.net/DTD/sodipodi-0.dtd"
   xmlns="http://www.w3.org/2000/svg"
   xmlns:svg="http://www.w3.org/2000/svg"
   xmlns:rdf="http://www.w3.org/1999/02/22-rdf-syntax-ns#"
   xmlns:cc="http://creativecommons.org/ns#"
   xmlns:dc="http://purl.org/dc/elements/1.1/">
  <title
     id="title848">Quinten Club Logo</title>
  <sodipodi:namedview
     id="namedview7"
     pagecolor="#ffffff"
     bordercolor="#666666"
     borderopacity="1.0"
     inkscape:pageshadow="2"
     inkscape:pageopacity="0.0"
     inkscape:pagecheckerboard="true"
     inkscape:document-units="px"
     showgrid="true"
     units="px"
     width="1024px"
     inkscape:showpageshadow="false"
     borderlayer="true"
     lock-margins="true"
     inkscape:zoom="0.61825196"
     inkscape:cx="520.01453"
     inkscape:cy="430.2453"
     inkscape:window-width="1512"
     inkscape:window-height="916"
     inkscape:window-x="0"
     inkscape:window-y="38"
     inkscape:window-maximized="0"
     inkscape:current-layer="layer1"
     showguides="true"
     objecttolerance="20"
     guidetolerance="20"
     inkscape:snap-global="true"
     inkscape:snap-bbox="true"
     inkscape:snap-nodes="false"
     inkscape:snap-others="false"
     inkscape:snap-grids="true"
     inkscape:snap-to-guides="false"
     gridtolerance="15.3"
     inkscape:snap-page="false"
     inkscape:snap-text-baseline="false"
     inkscape:snap-center="false"
     inkscape:snap-object-midpoints="false"
     inkscape:object-paths="false"
     inkscape:snap-intersection-paths="false"
     inkscape:snap-smooth-nodes="false"
     inkscape:snap-midpoints="false"
     inkscape:bbox-paths="true"
     inkscape:bbox-nodes="true"
     inkscape:snap-bbox-edge-midpoints="false"
     inkscape:snap-bbox-midpoints="false"
     inkscape:object-nodes="false">
    <inkscape:grid
       type="xygrid"
       id="grid844"
       dotted="false"
       empspacing="1"
       spacingx="64"
       spacingy="64" />
  </sodipodi:namedview>
  <defs
     id="defs2" />
  <g
     inkscape:label="Layer 1"
     inkscape:groupmode="layer"
     id="layer1">
    <rect
       style="fill:#272d2d;stroke-width:1.05435;stop-color:#000000;fill-opacity:1"
       id="rect4229"
       width="1024"
       height="1024"
       x="-1.3100632e-14"
       y="-5.3290705e-15" />
    <path
       id="path2125"
       style="fill:#f2fdff;stroke-width:1.36493;stop-color:#000000;fill-opacity:1"
       d="M 448 192 A 256 256 0 0 0 192 448 A 256 256 0 0 0 302.18555 657.81445 A 256 256 0 0 1 256 512 A 256 256 0 0 1 512 256 A 256 256 0 0 1 658.11523 301.88477 A 256 256 0 0 0 448 192 z " />
    <path
       id="path2250"
       style="fill:#f2fdff;stroke-width:1.3357;stop-color:#000000;fill-opacity:1"
       d="M 703.98047 256.0332 A 320 320.00043 0 0 1 768 448 A 320 320.00043 0 0 1 448 768 A 320 320.00043 0 0 1 256.58008 703.41602 A 320 320.00043 0 0 0 512 832 A 320 320.00043 0 0 0 832 512 A 320 320.00043 0 0 0 703.98047 256.0332 z " />
    <path
       id="rect3499"
       style="fill:#f2fdff;stroke-width:0.838369;stop-color:#000000;fill-opacity:1"
       d="m 813.02146,722.78524 a 63.999996,63.80685 45 0 0 -90.37295,-0.13672 63.999996,63.80685 45 0 0 0.13672,90.37293 63.999996,63.80685 45 0 0 1.07309,0.92947 l -0.34103,0.34951 89.50425,89.50422 a 63.999996,63.80685 45 0 1 -0.13672,-90.37293 63.999996,63.80685 45 0 1 89.29294,-0.78583 l 0.34793,-0.35642 z" />
  </g>
  <metadata
     id="metadata846">
    <rdf:RDF>
      <cc:Work
         rdf:about="">
        <dc:title>Quinten Club Logo</dc:title>
        <dc:creator>
          <cc:Agent>
            <dc:title>Quinten</dc:title>
          </cc:Agent>
        </dc:creator>
        <dc:publisher>
          <cc:Agent>
            <dc:title>Quinten</dc:title>
          </cc:Agent>
        </dc:publisher>
        <dc:contributor>
          <cc:Agent>
            <dc:title>Quinten, Quinten and Quinten.</dc:title>
          </cc:Agent>
        </dc:contributor>
      </cc:Work>
    </rdf:RDF>
  </metadata>
</svg>
